# xmcd
#
# Track frame offsets: 
#        150
#        21484
#        40043
#        61477
#        81582
#        98567
#        112432
#        129407
#        149565
#
# Disc length: 2302 seconds
#
# Revision: 0
# Processed by: cddbd v1.5.2PL0 Copyright (c) Steve Scherf et al.
# Submitted via: ExactAudioCopy v1.3
#
DISCID=8508fc09
DTITLE=Juurakko - Yhdeks‰s talvi
DYEAR=2019
DGENRE=Blues
TTITLE0=Syksy vanhenee
TTITLE1=Kylm‰n tytti
TTITLE2=Koska meill' on joulu?
TTITLE3=Neilikka, inkiv‰‰ri, kaneli
TTITLE4=Joulu Skattalla
TTITLE5=Soita sormii napsuttele
TTITLE6=Tulikettu, kultah‰nt‰
TTITLE7=Laulu Titanicin haaksirikosta
TTITLE8=R‰nt‰‰, hyhm‰‰
EXTD=
EXTT0=
EXTT1=
EXTT2=
EXTT3=
EXTT4=
EXTT5=
EXTT6=
EXTT7=
EXTT8=
PLAYORDER=
